<?xml version="1.0" encoding="UTF-8"?>
<!DOCTYPE svg PUBLIC "-//W3C//DTD SVG 1.1//EN" "http://www.w3.org/Graphics/SVG/1.1/DTD/svg11.dtd">
<!-- Creator: CorelDRAW X8 -->
<svg xmlns="http://www.w3.org/2000/svg" xml:space="preserve" width="64.2618mm" height="10.3292mm" version="1.1" style="shape-rendering:geometricPrecision; text-rendering:geometricPrecision; image-rendering:optimizeQuality; fill-rule:evenodd; clip-rule:evenodd"
viewBox="0 0 6426 1033"
 xmlns:xlink="http://www.w3.org/1999/xlink">
 <defs>
  <style type="text/css">
   <![CDATA[
    .fil1 {fill:#500F73}
    .fil0 {fill:#500F73;fill-rule:nonzero}
    .fil3 {fill:gray;fill-rule:nonzero}
    .fil2 {fill:#FFCC00;fill-rule:nonzero}
   ]]>
  </style>
 </defs>
 <g id="Camada_x0020_1">
  <metadata id="CorelCorpID_0Corel-Layer"/>
  <g id="_1514950893536">
   <g id="_1515014245040">
    <g>
     <path class="fil0" d="M1278 574l0 244c-34,17 -67,30 -99,39 -32,8 -63,13 -93,13 -77,0 -140,-26 -191,-76 -51,-51 -76,-115 -76,-192 0,-77 26,-142 77,-193 51,-51 116,-76 195,-76 29,0 57,4 84,12 27,8 53,21 78,37l-13 126c-24,-24 -47,-41 -70,-52 -23,-11 -47,-16 -73,-16 -45,0 -82,15 -112,45 -29,30 -44,68 -44,113 0,48 14,87 43,117 28,30 65,45 110,45 10,0 21,-1 32,-3 10,-2 21,-4 33,-8l0 -73 -95 0 0 -102 214 0zm99 279l0 -503 310 0 0 104 -193 0 0 91 165 0 0 103 -165 0 0 99 196 0 0 106 -313 0zm404 0l0 -519 12 0 313 293 0 -277 111 0 0 522 -10 0 -315 -293 0 274 -111 0zm923 -344c-22,-22 -44,-39 -66,-50 -23,-10 -46,-16 -71,-16 -42,0 -77,15 -104,44 -27,30 -41,67 -41,113 0,46 14,84 41,112 26,29 61,43 104,43 26,0 51,-5 76,-16 26,-11 51,-27 76,-48l-7 134c-22,14 -45,25 -71,33 -26,8 -52,12 -80,12 -29,0 -58,-5 -85,-14 -27,-10 -52,-23 -75,-41 -32,-26 -57,-57 -74,-94 -18,-36 -26,-76 -26,-119 0,-38 6,-73 19,-105 13,-33 31,-62 55,-87 25,-25 53,-44 85,-57 32,-13 66,-20 102,-20 28,0 55,4 81,12 26,8 50,20 73,36l-12 128zm95 344l0 -503 120 0 0 503 -120 0zm330 -251c0,43 12,80 38,110 25,29 57,44 94,44 38,0 70,-15 95,-44 26,-30 38,-66 38,-110 0,-45 -12,-82 -38,-111 -25,-29 -57,-44 -95,-44 -37,0 -69,15 -94,44 -26,29 -38,66 -38,111zm-124 0c0,-38 6,-73 19,-105 13,-33 32,-62 57,-87 23,-25 51,-44 82,-57 31,-13 64,-19 98,-19 35,0 67,6 99,19 31,14 59,33 83,57 25,25 43,54 56,86 13,33 19,68 19,106 0,31 -4,61 -13,88 -9,28 -22,54 -40,76 -24,33 -54,58 -90,76 -36,19 -74,28 -114,28 -34,0 -66,-7 -97,-20 -31,-13 -59,-32 -83,-57 -25,-26 -44,-55 -57,-87 -13,-32 -19,-67 -19,-104zm710 -252l0 276c0,45 9,78 25,100 16,22 41,33 74,33 32,0 56,-10 73,-31 17,-20 25,-50 25,-89l0 -289 108 0 0 289c0,72 -19,129 -56,170 -38,40 -89,61 -156,61 -66,0 -118,-21 -156,-61 -37,-40 -55,-97 -55,-170l0 -289 118 0zm408 453c0,-17 5,-30 17,-42 12,-11 26,-17 42,-17 17,0 31,5 42,17 11,11 17,25 17,42 0,16 -6,30 -18,41 -11,12 -25,18 -41,18 -16,0 -30,-6 -42,-18 -11,-12 -17,-26 -17,-41zm38 -108c-13,-66 -24,-127 -31,-183 -7,-57 -12,-110 -13,-159l137 -19c0,60 -19,179 -56,356l-2 10 -35 -5z"/>
     <polygon class="fil1" points="195,932 0,932 416,100 833,932 638,932 416,429 "/>
     <path class="fil2" d="M833 102c0,555 -405,674 -833,830l114 -229c344,-85 630,-218 719,-601z"/>
    </g>
    <polygon class="fil3" points="4694,0 4694,1032 4674,1032 4674,0 "/>
    <g>
     <path class="fil3" d="M5517 921l-101 0 0 -195 -202 0 0 195 -101 0 0 -473 101 0 0 191 202 0 0 -191 101 0 0 191 88 0 0 -191 101 0 0 276c0,79 31,118 93,118 62,0 92,-38 92,-114l0 -280 101 0 0 193 86 0 0 -193 168 0c52,0 92,10 120,29 28,20 42,47 42,82 0,25 -9,48 -26,67 -18,20 -40,33 -66,40l0 1c33,4 60,17 80,37 20,20 30,46 30,77 0,43 -15,77 -45,102 -31,26 -73,38 -126,38l-177 0 0 -197 -86 0c-2,137 -68,206 -197,206 -126,0 -189,-68 -190,-204l-88 0 0 195zm697 -197l-35 0 0 122 60 0c26,0 46,-6 60,-18 14,-11 21,-28 21,-49 0,-67 -60,-55 -106,-55zm-35 -201l0 117 48 0c23,0 41,-5 55,-16 13,-11 19,-27 19,-46 0,-37 -26,-55 -79,-55l-43 0z"/>
     <path class="fil3" d="M5177 263l0 -163 61 0c11,0 19,0 25,1 8,2 15,4 20,8 6,4 10,9 14,16 3,7 5,14 5,22 0,14 -5,26 -14,35 -9,10 -25,15 -48,15l-42 0 0 66 -21 0zm21 -85l43 0c14,0 23,-3 29,-8 6,-5 9,-13 9,-22 0,-7 -2,-13 -5,-18 -4,-5 -8,-8 -14,-9 -3,-1 -10,-2 -20,-2l-42 0 0 59zm121 26c0,-22 6,-38 18,-48 10,-9 23,-14 37,-14 17,0 30,6 40,16 11,11 16,26 16,45 0,15 -2,27 -7,35 -5,9 -11,16 -20,21 -9,5 -18,7 -29,7 -16,0 -30,-5 -40,-16 -10,-11 -15,-26 -15,-46zm20 0c0,15 4,27 10,34 7,8 15,12 25,12 10,0 19,-4 25,-12 7,-7 10,-19 10,-34 0,-15 -3,-26 -10,-34 -6,-7 -15,-11 -25,-11 -10,0 -18,4 -25,11 -6,8 -10,19 -10,34zm136 59l-36 -118 21 0 19 68 7 26c0,-1 2,-10 6,-25l18 -69 21 0 18 69 6 22 7 -23 20 -68 20 0 -38 118 -20 0 -19 -70 -5 -21 -24 91 -21 0zm224 -38l21 3c-3,12 -9,21 -18,28 -9,7 -20,10 -34,10 -17,0 -31,-5 -41,-16 -10,-11 -15,-26 -15,-45 0,-20 5,-35 15,-46 10,-11 24,-17 40,-17 16,0 29,6 39,17 10,10 15,25 15,45 0,1 0,3 0,5l-89 0c1,13 5,23 11,30 7,7 15,11 25,11 7,0 14,-2 19,-6 5,-4 9,-10 12,-19zm-66 -32l66 0c0,-10 -3,-18 -7,-23 -6,-7 -15,-11 -25,-11 -9,0 -17,3 -23,9 -6,6 -10,15 -11,25zm112 70l0 -118 18 0 0 18c5,-8 9,-14 13,-17 4,-2 8,-4 13,-4 7,0 14,3 21,7l-8 18c-4,-2 -9,-4 -14,-4 -5,0 -9,2 -12,4 -3,3 -6,6 -7,11 -3,7 -4,15 -4,24l0 61 -20 0zm157 -38l21 3c-3,12 -9,21 -18,28 -9,7 -20,10 -34,10 -17,0 -31,-5 -41,-16 -10,-11 -15,-26 -15,-45 0,-20 5,-35 15,-46 10,-11 24,-17 40,-17 16,0 29,6 39,17 10,10 15,25 15,45 0,1 0,3 0,5l-89 0c1,13 5,23 11,30 7,7 15,11 25,11 7,0 14,-2 19,-6 5,-4 9,-10 12,-19zm-65 -32l66 0c-1,-10 -4,-18 -8,-23 -6,-7 -15,-11 -25,-11 -9,0 -17,3 -23,9 -6,6 -10,15 -10,25zm188 70l0 -15c-8,12 -19,18 -33,18 -10,0 -18,-3 -26,-8 -8,-5 -14,-12 -19,-22 -4,-9 -6,-20 -6,-32 0,-11 2,-22 6,-32 4,-9 10,-17 18,-22 7,-5 16,-8 26,-8 7,0 13,2 19,5 6,3 10,7 14,12l0 -59 20 0 0 163 -19 0zm-64 -59c0,15 4,27 10,34 7,8 14,12 23,12 9,0 16,-4 22,-11 6,-7 9,-18 9,-33 0,-16 -3,-28 -9,-36 -6,-7 -14,-11 -23,-11 -9,0 -17,4 -23,11 -6,7 -9,19 -9,34zm196 59l-18 0 0 -163 20 0 0 58c8,-10 19,-16 32,-16 8,0 14,2 21,5 6,3 12,7 16,12 4,5 8,12 10,19 2,8 3,16 3,24 0,21 -5,36 -15,47 -10,11 -22,17 -36,17 -14,0 -25,-6 -33,-17l0 14zm0 -60c0,14 2,25 6,31 6,10 15,16 26,16 8,0 16,-4 22,-12 7,-8 10,-19 10,-34 0,-15 -3,-27 -9,-34 -6,-7 -14,-11 -22,-11 -9,0 -17,4 -23,11 -7,8 -10,19 -10,33zm108 106l-2 -19c4,2 8,2 11,2 5,0 8,-1 11,-2 3,-1 5,-4 7,-6 1,-2 3,-7 6,-15 0,-1 1,-3 2,-5l-45 -119 21 0 25 68c3,9 6,18 8,28 3,-9 5,-18 9,-27l25 -69 20 0 -45 121c-5,12 -8,21 -11,26 -4,7 -8,12 -12,15 -5,3 -11,4 -17,4 -4,0 -8,0 -13,-2z"/>
    </g>
   </g>
  </g>
 </g>
</svg>
